<svg id="_x31_px" height="512" viewBox="0 0 36 36" width="512" xmlns="http://www.w3.org/2000/svg"><path d="m27.623 31.833c-6.917 0-11.667 3.583-15 3.583s-10.333-1.916-10.333-17.249 9.417-17.584 13.083-17.584c17.167 0 24.5 31.25 12.25 31.25z" fill="#efefef"/><path d="m5.5 30c-.827 0-1.5-.673-1.5-1.5s.673-1.5 1.5-1.5 1.5.673 1.5 1.5-.673 1.5-1.5 1.5zm0-2c-.276 0-.5.224-.5.5s.224.5.5.5.5-.224.5-.5-.224-.5-.5-.5z" fill="#a4afc1"/><path d="m9.5 8.5h-2c-.55.01-1 .45-1 1v12c0 .55.45 1 1 1h9.5 9.5c.552 0 1-.448 1-1v-12c0-.55-.45-1-1-1h-2z" fill="#2fdf84"/><path d="m17 22.5c-2.04-1.78-4.16-2.43-6.37-2.18-.6.07-1.13-.38-1.13-.98v-11.75c0-.5.37-.93.87-1 2.29-.34 4.51.29 6.63 2.14 2.12-1.85 4.34-2.48 6.63-2.14.5.07.87.5.87 1v11.91 1s-5.042-.625-7.5 2z" fill="#f3f3f1"/><path d="m29.5 24.5-5 5-5-5h3v-5.5c0-.276.224-.5.5-.5h3c.276 0 .5.224.5.5v5.5z" fill="#2fdf84"/><g fill="#00b871"><path d="m21.5 24.5h-2l5 5 1-1z"/><path d="m24.5 19c0-.276.224-.5.5-.5h-2c-.276 0-.5.224-.5.5v5.5h2z"/><path d="m8.5 21.5v-12c0-.55.45-.99 1-1h-2c-.55.01-1 .45-1 1v12c0 .55.45 1 1 1h2c-.55 0-1-.45-1-1z"/></g><path d="m12.75 20.312c-.04.004-.08.004-.12.008-.6.07-1.13-.38-1.13-.98v-11.75c0-.5.37-.93.87-1 .046-.007.091-.007.137-.013-.705-.093-1.417-.094-2.137.013-.5.07-.87.5-.87 1v11.75c0 .6.53 1.05 1.13.98.716-.081 1.422-.057 2.12.059z" fill="#d5dbe1"/><path d="m24.5 30c-.128 0-.256-.049-.354-.146l-5-5c-.143-.143-.186-.358-.108-.545.077-.187.26-.309.462-.309h2.5v-5c0-.551.449-1 1-1h3c.551 0 1 .449 1 1v5h2.5c.202 0 .385.122.462.309.078.187.035.402-.108.545l-5 5c-.098.097-.226.146-.354.146zm-3.793-5 3.793 3.793 3.793-3.793h-1.793c-.276 0-.5-.224-.5-.5v-5.5h-3v5.5c0 .276-.224.5-.5.5z"/><path d="m17 23c-.117 0-.234-.041-.329-.123-1.869-1.631-3.829-2.303-5.985-2.06-.431.049-.868-.085-1.19-.373-.315-.28-.496-.682-.496-1.104v-11.75c0-.748.559-1.391 1.3-1.495 2.388-.353 4.642.312 6.7 1.982 2.058-1.67 4.309-2.337 6.703-1.981.738.103 1.297.746 1.297 1.494v7.91c0 .276-.224.5-.5.5s-.5-.224-.5-.5v-7.91c0-.252-.189-.47-.44-.505-2.251-.334-4.29.328-6.231 2.022-.188.164-.469.164-.657 0-1.941-1.695-3.979-2.357-6.228-2.022-.255.035-.444.252-.444.505v11.75c0 .139.057.266.16.357.11.098.256.143.412.126 2.294-.257 4.453.421 6.427 2.022.751-.612 1.527-1.085 2.311-1.408.257-.104.548.017.653.272s-.017.547-.272.653c-.796.328-1.591.837-2.36 1.513-.095.083-.213.125-.331.125z"/><path d="m27.5 16c-.276 0-.5-.224-.5-.5v-6c0-.276-.224-.5-.5-.5h-2c-.276 0-.5-.224-.5-.5s.224-.5.5-.5h2c.827 0 1.5.673 1.5 1.5v6c0 .276-.224.5-.5.5z"/><path d="m17.27 23h-9.77c-.827 0-1.5-.673-1.5-1.5v-12c0-.812.669-1.485 1.491-1.5h2.009c.276 0 .5.224.5.5s-.224.5-.5.5h-2c-.271.005-.5.229-.5.5v12c0 .276.224.5.5.5h9.77c.276 0 .5.224.5.5s-.224.5-.5.5z"/><path d="m17 23c-.276 0-.5-.224-.5-.5v-14c0-.276.224-.5.5-.5s.5.224.5.5v14c0 .276-.224.5-.5.5z"/></svg>