<svg id="Layer_2" height="512" viewBox="0 0 64 64" width="512" xmlns="http://www.w3.org/2000/svg" data-name="Layer 2"><path d="m25.5 21.5h14.924a16.516 16.516 0 0 0 -14.924-14.924z" fill="#3e3ef4"/><path d="m24 24.5a1.5 1.5 0 0 1 -1.5-1.5v-16.424a16.5 16.5 0 1 0 17.924 17.924z" fill="#3e3ef4"/><path d="m55 21.5h-10a1.5 1.5 0 0 0 0 3h10a1.5 1.5 0 0 0 0-3z"/><path d="m55 29h-10a1.5 1.5 0 0 0 0 3h10a1.5 1.5 0 0 0 0-3z"/><path d="m55 14h-10a1.5 1.5 0 0 0 0 3h10a1.5 1.5 0 0 0 0-3z"/><path d="m58 .5h-52a4.505 4.505 0 0 0 -4.5 4.5v36a4.505 4.505 0 0 0 4.5 4.5h9.026l-4.472 16.1a1.5 1.5 0 0 0 2.891.8l2.2-7.9h32.714l2.2 7.9a1.5 1.5 0 0 0 2.891-.8l-4.477-16.1h9.027a4.505 4.505 0 0 0 4.5-4.5v-36a4.505 4.505 0 0 0 -4.5-4.5zm-41.527 51 1.667-6h27.719l1.667 6zm43.027-10.5a1.5 1.5 0 0 1 -1.5 1.5h-52a1.5 1.5 0 0 1 -1.5-1.5v-36a1.5 1.5 0 0 1 1.5-1.5h52a1.5 1.5 0 0 1 1.5 1.5z"/></svg>