<?xml version="1.0" encoding="utf-8"?>
<!-- Generator: Adobe Illustrator 23.0.3, SVG Export Plug-In . SVG Version: 6.00 Build 0)  -->
<svg version="1.1" id="Capa_1" xmlns="http://www.w3.org/2000/svg" xmlns:xlink="http://www.w3.org/1999/xlink" x="0px" y="0px"
	 viewBox="0 0 511.6 511.6" style="enable-background:new 0 0 511.6 511.6;" xml:space="preserve">
<style type="text/css">
	.st0{fill:url(#SVGID_1_);}
</style>
<linearGradient id="SVGID_1_" gradientUnits="userSpaceOnUse" x1="55.104" y1="255.8135" x2="456.523" y2="255.8135">
	<stop  offset="0" style="stop-color:#1245C6"/>
	<stop  offset="1" style="stop-color:#9909B7"/>
</linearGradient>
<path class="st0" d="M324.9,344.9l-201-18.6l-4,42.8l201.3,18.6L324.9,344.9z M320.1,400l-201.9,0.3v43.1l201.9-0.3V400z
	 M363.7,239.3L189.9,136.5l-22,37.1l173.9,102.8L363.7,239.3z M338.3,288.4l-195-52.2l-11.1,41.7l195,52.2L338.3,288.4z
	 M354.6,477.7H89.6V301.2H55.1v210.1h0.3l10,0.3h323.2v-0.3l0.3-10V301.2h-34.3V477.7z M422,0l-42.5,7.4l34.6,199l42.5-7.4L422,0z
	 M257,66.5l113.9,166.7l35.4-24.3L292.6,42L257,66.5z"/>
</svg>
